<?xml version="1.0" standalone="no"?>
<!DOCTYPE svg PUBLIC "-//W3C//DTD SVG 20010904//EN"
 "http://www.w3.org/TR/2001/REC-SVG-20010904/DTD/svg10.dtd">
<svg version="1.0" xmlns="http://www.w3.org/2000/svg"
 width="952.000000pt" height="952.000000pt" viewBox="0 0 952.000000 952.000000"
 preserveAspectRatio="xMidYMid meet">
<metadata>
Created by potrace 1.14, written by Peter Selinger 2001-2017
</metadata>
<g transform="translate(0.000000,952.000000) scale(0.100000,-0.100000)"
fill="#000000" stroke="none">
<path d="M4486 9443 c-1 -2 -42 -5 -92 -7 -82 -5 -108 -8 -204 -22 -19 -3 -50
-7 -69 -9 -18 -2 -40 -7 -50 -9 -9 -3 -29 -8 -46 -11 -27 -4 -41 -7 -92 -19
-80 -18 -208 -55 -253 -73 -8 -3 -21 -7 -28 -9 -28 -5 -180 -68 -280 -116 -56
-26 -107 -48 -111 -48 -5 0 -11 -4 -13 -8 -1 -4 -34 -25 -73 -46 -90 -49 -190
-117 -235 -158 -103 -96 -185 -240 -217 -383 -9 -39 -10 -261 -1 -298 63 -264
240 -458 493 -542 74 -24 100 -28 203 -31 145 -3 262 28 402 107 14 8 27 17
30 21 23 29 329 156 417 173 112 20 149 27 181 31 53 6 251 6 292 0 64 -10
115 -17 135 -21 173 -34 360 -112 507 -212 107 -73 120 -84 230 -194 172 -174
293 -387 357 -629 18 -69 23 -95 36 -190 15 -101 10 -299 -9 -395 -4 -16 -9
-46 -12 -65 -13 -73 -55 -202 -95 -287 -23 -48 -43 -91 -43 -94 -3 -17 -129
-199 -138 -199 -6 0 -9 -3 -6 -6 9 -9 -112 -139 -198 -212 -51 -42 -200 -142
-213 -142 -6 0 -11 -4 -11 -10 0 -5 -9 -10 -19 -10 -11 0 -21 -4 -23 -8 -4
-10 -136 -66 -222 -94 -110 -35 -346 -72 -441 -68 -5 1 -392 2 -860 3 -649 2
-864 0 -911 -9 -78 -17 -166 -49 -198 -75 -14 -11 -26 -18 -26 -15 0 16 -131
-110 -173 -167 -36 -48 -83 -151 -93 -202 -4 -22 -5 -40 -3 -41 2 0 -1 -7 -7
-15 -8 -10 -11 -629 -11 -2306 l0 -2293 444 1 c493 2 510 3 643 62 155 68 291
228 341 400 19 66 22 162 23 655 l0 522 676 1 c371 1 686 2 700 3 206 16 401
144 499 327 66 124 73 160 76 379 3 230 -3 265 -68 401 -15 30 -38 68 -50 84
-36 48 -140 145 -154 145 -7 0 -13 4 -13 8 0 9 -115 64 -170 81 -69 21 -154
24 -820 25 l-675 1 0 290 0 290 410 2 c226 2 416 3 423 2 6 0 40 -1 75 -1 63
-2 245 8 282 16 11 2 47 7 80 12 33 4 62 8 65 9 3 1 25 5 50 10 25 5 47 9 50
10 3 1 25 5 50 10 53 10 59 12 63 15 2 2 22 7 59 15 15 3 40 10 55 16 16 6 38
13 50 15 20 4 160 54 208 74 92 39 195 86 239 109 111 59 191 105 194 113 2 4
8 8 14 8 9 0 146 91 174 115 6 6 22 17 34 25 93 61 355 306 452 424 28 34 54
63 57 66 15 13 71 90 71 99 0 5 4 11 9 13 9 3 131 179 144 208 4 8 18 33 31
55 28 44 112 213 145 290 34 77 38 88 50 120 6 17 16 44 22 60 7 17 13 32 14
35 5 18 29 96 30 100 1 3 7 25 14 50 7 25 15 52 17 60 2 8 10 42 18 75 8 33
17 76 20 95 3 19 8 46 11 60 3 14 7 45 10 70 3 25 8 61 11 80 23 158 23 495
-1 680 -8 65 -14 96 -41 245 -14 79 -82 321 -104 370 -5 11 -12 31 -16 45 -4
14 -17 47 -30 74 -13 28 -24 54 -24 58 0 14 -126 262 -161 318 -9 14 -35 57
-60 95 -43 69 -155 224 -201 277 -13 15 -38 45 -56 67 -44 52 -233 237 -297
291 -27 23 -62 51 -76 63 -14 12 -48 38 -75 57 -27 19 -50 38 -52 42 -2 4 -9
8 -16 8 -7 0 -21 9 -31 20 -10 11 -22 20 -26 20 -4 0 -36 19 -71 42 -95 63
-405 218 -436 218 -7 0 -12 4 -12 8 0 5 -6 9 -12 10 -7 0 -62 18 -123 40 -60
21 -112 39 -115 39 -3 0 -30 7 -60 16 -30 9 -68 19 -85 22 -16 4 -39 8 -50 11
-11 2 -42 8 -70 14 -27 5 -61 12 -75 15 -14 2 -45 7 -70 10 -25 3 -61 7 -80
10 -82 11 -426 25 -434 18z"/>
<path d="M2734 7642 c-100 -17 -121 -53 -120 -209 l1 -112 -50 -23 c-27 -12
-52 -25 -55 -28 -3 -3 -30 -21 -60 -41 -63 -42 -180 -156 -180 -176 0 -7 -3
-13 -8 -13 -17 0 -91 -151 -113 -230 -16 -58 -19 -73 -25 -125 -9 -72 -10 -74
-15 -79 -2 -2 -19 -6 -37 -9 -51 -8 -72 -33 -72 -83 0 -42 0 -43 38 -46 l37
-3 1 -120 c1 -66 4 -133 8 -150 3 -16 9 -43 12 -60 4 -16 20 -63 36 -104 94
-239 308 -429 553 -490 102 -25 225 -32 333 -17 65 9 190 50 245 81 23 13 57
31 75 41 32 16 178 154 214 200 45 60 100 171 124 250 24 78 27 107 28 232 l1
143 25 -2 c70 -4 71 -3 65 48 -3 25 -10 52 -16 60 -11 13 -74 29 -96 25 -8 -2
-13 8 -14 25 -1 59 -12 121 -36 198 -24 78 -70 177 -85 183 -5 2 -8 9 -8 16 0
17 -170 196 -186 196 -6 0 -17 6 -23 14 -7 8 -36 27 -64 41 -65 34 -78 45 -71
57 9 13 9 157 1 165 -4 3 -3 11 2 17 16 19 -23 93 -60 111 -36 19 -87 26 -95
13 -3 -5 -10 -5 -17 -1 -11 7 -256 11 -293 5z"/>
</g>
</svg>
